<?xml version="1.0" encoding="UTF-8" standalone="no"?>
<svg width="68px" height="65px" viewBox="0 0 68 65" version="1.1" xmlns="http://www.w3.org/2000/svg" xmlns:xlink="http://www.w3.org/1999/xlink" xmlns:sketch="http://www.bohemiancoding.com/sketch/ns">
    <!-- Generator: Sketch 3.2.2 (9983) - http://www.bohemiancoding.com/sketch -->
    <title>thumb-up</title>
    <desc>Created with Sketch.</desc>
    <defs></defs>
    <g id="Page-1" stroke="none" stroke-width="1" fill="none" fill-rule="evenodd" sketch:type="MSPage">
        <g id="Desktop-HD-3" sketch:type="MSArtboardGroup" transform="translate(-771.000000, -426.000000)" fill="#E0E0E0">
            <path d="M771,481 L771,456 C771,454.619785 771.55338,453.441411 772.660156,452.464844 C773.766933,451.488276 775.102423,451 776.666667,451 L788.796875,451 C789.85938,450.374997 791.881061,448.356788 794.861979,444.945312 C796.573793,442.992178 798.152771,441.325528 799.598958,439.945312 C800.307295,439.294268 800.831161,438.180997 801.170573,436.605469 C801.509984,435.02994 801.960067,433.382821 802.520833,431.664062 C803.0816,429.945304 803.996521,428.539068 805.265625,427.445312 C806.416672,426.481766 807.744784,426 809.25,426 C811.729179,426 813.957455,426.423173 815.934896,427.269531 C817.912336,428.11589 819.41753,429.437491 820.450521,431.234375 C821.483512,433.031259 822,435.45311 822,438.5 C822,440.921887 821.291674,443.421862 819.875,446 L827.666667,446 C830.736126,446 833.39235,446.989573 835.635417,448.96875 C837.878483,450.947927 839,453.278632 839,455.960938 C839,458.278657 838.276917,460.401032 836.830729,462.328125 C837.096355,463.187504 837.229167,464.085933 837.229167,465.023437 C837.229167,467.028656 836.668408,468.903637 835.546875,470.648438 C835.635417,471.195315 835.679688,471.755205 835.679688,472.328125 C835.679688,474.958346 834.79428,477.276032 833.023438,479.28125 C833.052952,482.90106 831.798624,485.759104 829.260417,487.855469 C826.72221,489.951833 823.372417,491 819.210937,491 L817.617188,491 L813.5,491 C810.666653,491 807.870239,490.707034 805.110677,490.121094 C802.351115,489.535153 799.156268,488.682297 795.526042,487.5625 C792.102413,486.520828 790.065975,486 789.416667,486 L776.666667,486 C775.102423,486 773.766933,485.511724 772.660156,484.535156 C771.55338,483.558589 771,482.380215 771,481 L771,481 Z M776.666667,478.5 C776.666667,479.177087 776.947046,479.763018 777.507812,480.257812 C778.068579,480.752607 778.732635,481 779.5,481 C780.267365,481 780.931421,480.752607 781.492187,480.257812 C782.052954,479.763018 782.333333,479.177087 782.333333,478.5 C782.333333,477.822913 782.052954,477.236982 781.492187,476.742188 C780.931421,476.247393 780.267365,476 779.5,476 C778.732635,476 778.068579,476.247393 777.507812,476.742188 C776.947046,477.236982 776.666667,477.822913 776.666667,478.5 L776.666667,478.5 Z M788,481 L789.416667,481 C789.800349,481 790.265188,481.039062 790.811198,481.117188 C791.357208,481.195313 791.844182,481.279947 792.272135,481.371094 C792.700089,481.46224 793.260847,481.605468 793.954427,481.800781 C794.648007,481.996095 795.164495,482.145833 795.503906,482.25 C795.843318,482.354167 796.367184,482.516926 797.075521,482.738281 C797.783858,482.959637 798.211805,483.096354 798.359375,483.148438 C804.586837,485.049489 809.633661,486 813.5,486 L818.856771,486 C824.523466,486 827.356771,483.825543 827.356771,479.476562 C827.356771,478.799476 827.282987,478.070316 827.135417,477.289062 C828.020838,476.872394 828.721786,476.188807 829.238281,475.238281 C829.754777,474.287756 830.013021,473.330734 830.013021,472.367188 C830.013021,471.403641 829.747398,470.505213 829.216146,469.671875 C830.78039,468.369785 831.5625,466.820321 831.5625,465.023438 C831.5625,464.372393 831.414932,463.649744 831.119792,462.855469 C830.824651,462.061194 830.455731,461.442711 830.013021,461 C830.95747,460.973958 831.746959,460.361985 832.38151,459.164062 C833.016062,457.96614 833.333333,456.911463 833.333333,456 C833.333333,454.671868 832.757818,453.506515 831.606771,452.503906 C830.455723,451.501297 829.142368,451 827.666667,451 L812.083333,451 C812.083333,449.489576 812.79166,447.412774 814.208333,444.769531 C815.625007,442.126289 816.333333,440.036466 816.333333,438.5 C816.333333,435.947904 815.861116,434.059902 814.916667,432.835938 C813.972217,431.611973 812.083348,431 809.25,431 C808.482635,431.677087 807.921877,432.783846 807.567708,434.320312 C807.21354,435.856779 806.763458,437.490877 806.217448,439.222656 C805.671438,440.954436 804.793409,442.380203 803.583333,443.5 C802.934025,444.098961 801.797751,445.283845 800.174479,447.054688 C800.056423,447.184896 799.717017,447.575518 799.15625,448.226562 C798.595483,448.877607 798.130644,449.411456 797.761719,449.828125 C797.392793,450.244794 796.883684,450.798174 796.234375,451.488281 C795.585066,452.178389 794.994794,452.7513 794.463542,453.207031 C793.932289,453.662763 793.364152,454.124998 792.759115,454.59375 C792.154077,455.062502 791.563805,455.414061 790.988281,455.648438 C790.412758,455.882814 789.888891,456 789.416667,456 L788,456 L788,481 Z" id="thumb-up" sketch:type="MSShapeGroup"></path>
        </g>
    </g>
</svg>